<svg width="1920" height="1080" viewBox="0 0 1920 1080" fill="none" xmlns="http://www.w3.org/2000/svg">
<g clip-path="url(#clip0_1_4)">
<rect width="1920" height="1080" fill="white"/>
<rect x="-141" width="2061" height="540" fill="#FFDA9C"/>
<path d="M733.25 410.55V367.8H603.2V353.4C618.5 337.2 631.7 321.45 642.8 306.15C653.9 290.55 663.5 274.5 671.6 258C679.7 241.5 686.75 223.8 692.75 204.9C699.05 185.7 704.75 164.4 709.85 141H757.55C745.55 183.3 728 221.25 704.9 254.85C681.8 288.45 654.2 321.3 622.1 353.4H733.25V282.75L772.4 276.45V353.4H807.05V367.8H772.4V410.55C772.4 421.05 772.85 427.2 773.75 429C774.65 430.8 777.5 432 782.3 432.6L807.05 435.3V447H689.6V435.3L723.35 432.6C728.15 432.3 731 431.25 731.9 429.45C732.8 427.35 733.25 421.05 733.25 410.55ZM1062.67 279.6V307.95C1062.67 336.75 1058.62 361.95 1050.52 383.55C1042.42 405.15 1030.57 421.95 1014.97 433.95C999.371 445.65 980.471 451.5 958.271 451.5C935.771 451.5 916.721 445.65 901.121 433.95C885.821 421.95 874.121 405.15 866.021 383.55C857.921 361.95 853.871 336.75 853.871 307.95V279.6C853.871 250.8 857.921 225.75 866.021 204.45C874.121 182.85 885.821 166.2 901.121 154.5C916.721 142.5 935.771 136.5 958.271 136.5C980.471 136.5 999.371 142.5 1014.97 154.5C1030.57 166.2 1042.42 182.85 1050.52 204.45C1058.62 225.75 1062.67 250.8 1062.67 279.6ZM1019.02 248.1C1019.02 213.3 1013.77 188.4 1003.27 173.4C992.771 158.4 977.771 150.9 958.271 150.9C938.771 150.9 923.771 158.4 913.271 173.4C902.771 188.4 897.521 213.3 897.521 248.1V339.45C897.521 374.55 902.771 399.6 913.271 414.6C923.771 429.6 938.771 437.1 958.271 437.1C977.771 437.1 992.771 429.6 1003.27 414.6C1013.77 399.6 1019.02 374.55 1019.02 339.45V248.1ZM1233.79 410.55V367.8H1103.74V353.4C1119.04 337.2 1132.24 321.45 1143.34 306.15C1154.44 290.55 1164.04 274.5 1172.14 258C1180.24 241.5 1187.29 223.8 1193.29 204.9C1199.59 185.7 1205.29 164.4 1210.39 141H1258.09C1246.09 183.3 1228.54 221.25 1205.44 254.85C1182.34 288.45 1154.74 321.3 1122.64 353.4H1233.79V282.75L1272.94 276.45V353.4H1307.59V367.8H1272.94V410.55C1272.94 421.05 1273.39 427.2 1274.29 429C1275.19 430.8 1278.04 432 1282.84 432.6L1307.59 435.3V447H1190.14V435.3L1223.89 432.6C1228.69 432.3 1231.54 431.25 1232.44 429.45C1233.34 427.35 1233.79 421.05 1233.79 410.55Z" fill="#C18B38"/>
<path d="M1342 508.606C1285.17 508.606 1232.6 459 1155.88 459C1079.16 459 1013.82 508.606 960.541 508.606C907.263 508.606 876 540 876 540H1300.8L1342 508.606Z" fill="#E0B587"/>
<path d="M1168 515.333C1120.85 515.333 994.485 466 926.588 466C858.691 466 762.504 515.333 715.353 515.333C668.202 515.333 655 540 655 540H1168V515.333Z" fill="#CA9F7C"/>
<path d="M1959.05 190.512C1846.65 172.64 1659.36 164.118 1509.48 254.055C1344.01 353.342 1220.17 540 960 540H1859.14L2009 254.055L1959.05 190.512Z" fill="#A07766"/>
<path d="M1959 191.069C1937.15 187.619 1915.02 184.925 1892.71 183C1814.61 190.304 1732.34 210.613 1659 254.511C1493.38 353.639 1369.42 540 1109 540H1859L2009 254.511L1959 191.069Z" fill="#795552"/>
<path d="M-1.57577 165C-86.7098 226.286 -153.525 293.205 -200 363.732L321.616 456.54L849 540C431.315 417.361 522.983 208.873 -1.57577 165Z" fill="#A07766"/>
<rect x="-25" y="540" width="2034" height="540" fill="#E9B668"/>
<path d="M-19.3541 177C-104.155 240.914 -169.398 310.592 -213 383.808L192.844 456.276L720 540C334.821 426.501 382.601 239.804 -19.3541 177Z" fill="#795552"/>
<path d="M960 1077C1489.34 1077 1920 836.105 1920 540H0C0 836.105 430.665 1077 960 1077Z" fill="#E9B668"/>
<path d="M960 1077C1489.34 1077 1920 836.105 1920 540H0C0 836.105 430.665 1077 960 1077Z" fill="#E9B668"/>
<path d="M960 600C1336.05 600 1685.01 566.947 1916.09 561.049C1918.52 554.106 1920 547.097 1920 540H0C0 547.097 1.485 554.106 3.91125 561.049C234.994 566.947 583.946 600 960 600Z" fill="#FFDA9C"/>
<path d="M1258.5 1077L960 540L658 1083.5C735.255 1126.59 865.436 1077 960 1077C1054.56 1077 1181.25 1120.09 1258.5 1077Z" fill="#674447"/>
<path d="M1032.98 671.357L960 540L887.023 671.357C911.097 673.159 935.432 674.25 960 674.25C984.568 674.25 1008.9 673.159 1032.98 671.357ZM682.061 842.062C672.785 842.062 665.279 834.549 665.279 825.281V657.469C665.279 648.201 672.785 640.688 682.061 640.688C691.336 640.688 698.842 648.201 698.842 657.469V825.281C698.842 834.549 691.336 842.062 682.061 842.062Z" fill="#8C665B"/>
<path d="M698.842 791.719H665.279C637.519 791.719 614.936 769.135 614.936 741.375V707.812C614.936 698.545 622.441 691.031 631.717 691.031C640.993 691.031 648.498 698.545 648.498 707.812V741.375C648.498 750.626 656.02 758.156 665.279 758.156H698.842C708.101 758.156 715.623 750.626 715.623 741.375V691.031C715.623 681.764 723.129 674.25 732.404 674.25C741.68 674.25 749.186 681.764 749.186 691.031V741.375C749.186 769.135 726.602 791.719 698.842 791.719Z" fill="#8C665B"/>
<path d="M1105.44 640.688C1104.62 640.688 1103.82 640.527 1103.06 640.215C1102.31 639.903 1101.63 639.446 1101.05 638.87C1100.47 638.294 1100.02 637.61 1099.7 636.857C1099.39 636.104 1099.23 635.297 1099.23 634.483V572.428C1099.23 570.782 1099.89 569.204 1101.05 568.04C1102.21 566.877 1103.79 566.223 1105.44 566.223C1107.08 566.223 1108.66 566.877 1109.82 568.04C1110.99 569.204 1111.64 570.782 1111.64 572.428V634.483C1111.64 635.298 1111.48 636.105 1111.17 636.858C1110.86 637.611 1110.4 638.295 1109.83 638.871C1109.25 639.448 1108.57 639.905 1107.81 640.216C1107.06 640.528 1106.25 640.688 1105.44 640.688Z" fill="#A07766"/>
<path d="M1111.64 622.071H1099.23C1088.97 622.071 1080.62 613.72 1080.62 603.454V591.042C1080.62 589.397 1081.27 587.818 1082.43 586.655C1083.6 585.491 1085.17 584.837 1086.82 584.837C1088.47 584.837 1090.04 585.491 1091.21 586.655C1092.37 587.818 1093.02 589.397 1093.02 591.042V603.454C1093.03 605.099 1093.68 606.677 1094.84 607.84C1096.01 609.004 1097.58 609.658 1099.23 609.659H1111.64C1113.29 609.657 1114.86 609.003 1116.03 607.84C1117.19 606.677 1117.84 605.099 1117.85 603.454V584.837C1117.85 583.192 1118.5 581.614 1119.66 580.45C1120.83 579.286 1122.41 578.633 1124.05 578.633C1125.7 578.633 1127.28 579.286 1128.44 580.45C1129.6 581.614 1130.26 583.192 1130.26 584.837V603.454C1130.26 613.72 1121.91 622.071 1111.64 622.071Z" fill="#A07766"/>
<path d="M1295.62 741.375C1286.35 741.375 1278.84 748.889 1278.84 758.156V791.719C1278.84 800.969 1271.32 808.5 1262.06 808.5V691.031C1262.06 681.764 1254.56 674.25 1245.28 674.25C1236.01 674.25 1228.5 681.764 1228.5 691.031V774.938C1219.24 774.938 1211.72 767.407 1211.72 758.156V741.375C1211.72 732.108 1204.21 724.594 1194.94 724.594C1185.66 724.594 1178.16 732.108 1178.16 741.375V758.156C1178.16 785.917 1200.74 808.5 1228.5 808.5V842.062C1228.5 851.33 1236.01 858.844 1245.28 858.844C1254.56 858.844 1262.06 851.33 1262.06 842.062C1289.82 842.062 1312.41 819.479 1312.41 791.719V758.156C1312.41 748.889 1304.9 741.375 1295.62 741.375Z" fill="#8C665B"/>
<path d="M1680.47 817.125C1671.19 817.125 1663.69 824.639 1663.69 833.906V867.469C1663.69 876.719 1656.17 884.25 1646.91 884.25V766.781C1646.91 757.514 1639.4 750 1630.12 750C1620.85 750 1613.34 757.514 1613.34 766.781V850.688C1604.08 850.688 1596.56 843.157 1596.56 833.906V817.125C1596.56 807.858 1589.06 800.344 1579.78 800.344C1570.51 800.344 1563 807.858 1563 817.125V833.906C1563 861.667 1585.58 884.25 1613.34 884.25V917.812C1613.34 927.08 1620.85 934.594 1630.12 934.594C1639.4 934.594 1646.91 927.08 1646.91 917.812C1674.67 917.812 1697.25 895.229 1697.25 867.469V833.906C1697.25 824.639 1689.74 817.125 1680.47 817.125Z" fill="#8C665B"/>
<path d="M233.469 758.125C224.193 758.125 216.688 765.639 216.688 774.906V808.469C216.688 817.719 209.165 825.25 199.906 825.25V707.781C199.906 698.514 192.401 691 183.125 691C173.849 691 166.344 698.514 166.344 707.781V791.688C157.085 791.688 149.562 784.157 149.562 774.906V758.125C149.562 748.858 142.057 741.344 132.781 741.344C123.505 741.344 116 748.858 116 758.125V774.906C116 802.667 138.583 825.25 166.344 825.25V858.812C166.344 868.08 173.849 875.594 183.125 875.594C192.401 875.594 199.906 868.08 199.906 858.812C227.667 858.812 250.25 836.229 250.25 808.469V774.906C250.25 765.639 242.745 758.125 233.469 758.125Z" fill="#8C665B"/>
<path d="M295.865 123.099C292.672 123.099 289.654 123.728 286.763 124.638C277.603 111.469 262.405 102.81 245.148 102.81C227.89 102.81 212.693 111.469 203.532 124.638C200.64 123.726 197.623 123.099 194.431 123.099C177.624 123.099 164 136.723 164 153.529H326.296C326.296 136.723 312.671 123.099 295.865 123.099ZM491.673 65.4906C489.393 65.4906 487.236 65.9395 485.172 66.5919C478.63 57.186 467.774 51 455.446 51C443.118 51 432.265 57.1839 425.72 66.5919C423.654 65.9395 421.5 65.4906 419.22 65.4906C407.215 65.4906 397.484 75.2216 397.484 87.2265H513.409C513.409 75.2216 503.678 65.4906 491.673 65.4906Z" fill="#EDC08E"/>
<path d="M1334 95.8563C1334 78.515 1348.06 64.4565 1365.4 64.4565C1368.02 64.4565 1370.52 64.8697 1372.95 65.4738C1381.14 56.6259 1392.76 51 1405.77 51C1430.54 51 1450.63 71.083 1450.63 95.8563H1334ZM1717.71 124.636C1717.71 102.296 1735.82 84.1849 1758.16 84.1849C1761.53 84.1849 1764.76 84.7177 1767.89 85.496C1778.44 74.0973 1793.41 66.8478 1810.17 66.8478C1842.09 66.8478 1867.96 92.7203 1867.96 124.636H1717.71Z" fill="#EDC08E"/>
<path d="M1077 192.002C1077 176.924 1089.22 164.701 1104.3 164.701C1106.58 164.701 1108.75 165.062 1110.87 165.586C1117.99 157.892 1128.09 153 1139.4 153C1160.94 153 1178.4 170.461 1178.4 192.002H1077Z" fill="#EDC08E"/>
<path d="M749 125.002C749 109.924 761.223 97.7007 776.301 97.7007C778.577 97.7007 780.752 98.0615 782.867 98.5859C789.99 90.8917 800.091 86 811.403 86C832.944 86 850.405 103.461 850.405 125.002H749Z" fill="#EDC08E"/>
<path d="M57.2501 312.008H1.2355C-51.1599 384.413 -78.0685 461.839 -77.9999 540H936.375C663.762 540 365.789 312.008 57.2501 312.008ZM1206.88 540H2086C2086 421.798 2025.45 311.446 1921.16 218C1531.01 302.936 1618.49 540 1206.88 540Z" fill="#8C665B"/>
<path d="M1009 1081.05L960 540L976.392 1083C987.348 1082.67 998.215 1082.03 1009 1081.05ZM943.608 1083L960 540L911 1081.05C921.785 1082.03 932.652 1082.67 943.608 1083Z" fill="#E9B668"/>
<path d="M960 540L653 1093.31C663.533 1099.19 674.291 1104.71 685.18 1110L960 540ZM960 540L1267 1093.31C1256.47 1099.19 1245.71 1104.71 1234.82 1110L960 540Z" fill="#FFDA9C"/>
<path d="M-30.4703 346C-61.0414 406.228 -78 471.609 -78 540H471C314.502 540 145.13 382.574 -30.4703 346Z" fill="#674447"/>
<path d="M812.545 596.947C811.654 596.947 810.772 597.122 809.948 597.463C809.125 597.804 808.377 598.304 807.746 598.934C807.116 599.564 806.616 600.312 806.275 601.136C805.934 601.959 805.759 602.842 805.759 603.733V617.305C805.758 619.104 805.042 620.829 803.77 622.101C802.498 623.374 800.773 624.089 798.973 624.091V576.591C798.973 574.792 798.259 573.066 796.986 571.793C795.713 570.521 793.987 569.806 792.188 569.806C790.388 569.806 788.662 570.521 787.389 571.793C786.117 573.066 785.402 574.792 785.402 576.591V610.519C783.602 610.517 781.877 609.802 780.605 608.53C779.333 607.257 778.617 605.532 778.616 603.733V596.947C778.616 595.147 777.901 593.421 776.628 592.149C775.356 590.876 773.63 590.161 771.83 590.161C770.03 590.161 768.304 590.876 767.031 592.149C765.759 593.421 765.044 595.147 765.044 596.947V603.733C765.044 614.958 774.175 624.091 785.402 624.091V637.663C785.402 639.462 786.117 641.188 787.389 642.461C788.662 643.734 790.388 644.449 792.188 644.449C793.987 644.449 795.713 643.734 796.986 642.461C798.259 641.188 798.973 639.462 798.973 637.663C810.198 637.663 819.331 628.532 819.331 617.305V603.733C819.331 601.933 818.616 600.207 817.344 598.935C816.071 597.662 814.345 596.947 812.545 596.947Z" fill="#A07766"/>
<path d="M1392.5 630.008C1391.2 630.008 1389.91 630.264 1388.7 630.763C1387.5 631.261 1386.41 631.991 1385.49 632.912C1384.57 633.833 1383.84 634.926 1383.34 636.129C1382.84 637.332 1382.58 638.622 1382.58 639.924V659.757C1382.58 662.386 1381.54 664.907 1379.68 666.766C1377.82 668.625 1375.3 669.67 1372.67 669.673V600.259C1372.67 594.782 1368.23 590.344 1362.75 590.344C1357.27 590.344 1352.84 594.784 1352.84 600.259V649.84C1350.21 649.837 1347.69 648.791 1345.83 646.932C1343.97 645.073 1342.92 642.553 1342.92 639.924V630.008C1342.92 628.706 1342.67 627.416 1342.17 626.213C1341.67 625.01 1340.94 623.917 1340.02 622.996C1339.1 622.075 1338 621.344 1336.8 620.846C1335.6 620.348 1334.31 620.092 1333.01 620.093C1331.7 620.092 1330.41 620.349 1329.21 620.847C1328.01 621.345 1326.91 622.076 1325.99 622.996C1325.07 623.917 1324.34 625.01 1323.84 626.213C1323.35 627.417 1323.09 628.706 1323.09 630.008V639.924C1323.09 656.328 1336.43 669.673 1352.84 669.673V689.506C1352.84 694.983 1357.27 699.422 1362.75 699.422C1368.24 699.422 1372.67 694.981 1372.67 689.506C1389.07 689.506 1402.42 676.161 1402.42 659.757V639.924C1402.42 637.294 1401.37 634.772 1399.51 632.912C1397.65 631.053 1395.13 630.008 1392.5 630.008Z" fill="#8C665B"/>
<path d="M570.218 630.008C568.916 630.008 567.626 630.264 566.423 630.763C565.22 631.261 564.127 631.991 563.206 632.912C562.285 633.833 561.555 634.926 561.056 636.129C560.558 637.332 560.302 638.622 560.302 639.924V659.757C560.299 662.386 559.254 664.907 557.395 666.766C555.536 668.625 553.015 669.67 550.387 669.673V600.259C550.387 594.782 545.952 590.344 540.471 590.344C534.99 590.344 530.555 594.784 530.555 600.259V649.84C527.926 649.837 525.406 648.791 523.547 646.932C521.688 645.073 520.642 642.553 520.64 639.924V630.008C520.64 628.706 520.384 627.416 519.886 626.213C519.388 625.01 518.658 623.917 517.737 622.996C516.816 622.075 515.722 621.344 514.519 620.846C513.316 620.348 512.026 620.092 510.724 620.093C509.422 620.092 508.132 620.349 506.929 620.847C505.726 621.345 504.633 622.076 503.712 622.996C502.791 623.917 502.061 625.01 501.563 626.213C501.064 627.417 500.808 628.706 500.808 630.008V639.924C500.808 656.328 514.154 669.673 530.557 669.673V689.506C530.557 694.983 534.992 699.422 540.473 699.422C545.954 699.422 550.389 694.981 550.389 689.506C566.792 689.506 580.138 676.161 580.138 659.757V639.924C580.136 637.294 579.091 634.772 577.231 632.912C575.37 631.053 572.848 630.008 570.218 630.008Z" fill="#8C665B"/>
<path d="M1308 540H2086C2086 443.27 2034.06 352.508 1943.71 274C1642.75 360.257 1689.33 540 1308 540Z" fill="#674447"/>
</g>
<defs>
<clipPath id="clip0_1_4">
<rect width="1920" height="1080" fill="white"/>
</clipPath>
</defs>
</svg>
